# xmcd
#
# Track frame offsets: 
#        150
#        10808
#        27525
#        41305
#        47962
#        62974
#        78924
#        88921
#        102543
#        119675
#
# Disc length: 1724 seconds
#
# Revision: 0
# Processed by: cddbd v1.5.2PL0 Copyright (c) Steve Scherf et al.
# Submitted via: ExactAudioCopyFreeDBPlugin 1.0
#
DISCID=8706ba0a
DTITLE=Gabriel Muzak - Quero Ver Dançar Agora
DYEAR=1900
DGENRE=
TTITLE0=Belém não para
TTITLE1=Uma mulher
TTITLE2=Quebra tudo
TTITLE3=Harmônico
TTITLE4=Andaluzia
TTITLE5=Ligação
TTITLE6=In the sky
TTITLE7=Made of Sand
TTITLE8=Brincadê
TTITLE9=Noite selva
EXTD=
EXTT0=
EXTT1=
EXTT2=
EXTT3=
EXTT4=
EXTT5=
EXTT6=
EXTT7=
EXTT8=
EXTT9=
PLAYORDER=
